<svg version="1.2" xmlns="http://www.w3.org/2000/svg" viewBox="0 0 1500 1500" width="1500" height="1500">
	<style>
		.s0 { fill: #df2850 } 
	</style>
	<path id="Path 0" fill-rule="evenodd" class="s0" d="m763.5 56.54c10.45 0.22 26.42 1.11 35.5 1.98 9.08 0.86 23.7 2.67 32.5 4.02 8.8 1.35 22.3 4 30 5.89 7.7 1.88 18.27 4.86 23.5 6.61 5.23 1.75 13.89 4.94 19.25 7.07 5.36 2.14 13.46 5.75 18 8.02 4.54 2.26 11.4 6.15 15.25 8.63 3.85 2.48 10.57 7.71 22.88 18.74l10.56 1.64c5.81 0.91 14.39 2.63 19.06 3.84 4.67 1.2 12.33 3.66 17 5.47 4.67 1.8 13.23 5.65 19 8.55 5.78 2.9 14.78 7.97 20 11.26 5.22 3.29 13.33 8.95 18 12.59 4.67 3.63 14.75 12.69 22.38 20.13 7.63 7.43 18.43 19.19 24 26.12 5.57 6.93 13.72 17.71 18.12 23.97 4.4 6.26 12.21 18.36 17.35 26.9 5.14 8.54 13.48 23.85 18.54 34.03 5.06 10.18 12.05 25.7 15.54 34.5 3.49 8.8 8.8 23.43 11.8 32.5 3 9.07 6.95 22.35 8.78 29.5 1.83 7.15 4.48 19.98 5.89 28.5 1.4 8.52 3.02 20.23 3.59 26 0.56 5.77 1.02 18.38 1.02 28 0 9.63-0.47 21.32-1.03 26-0.57 4.68-1.74 12.1-2.61 16.5-0.86 4.4-2.92 12.27-4.58 17.5-1.65 5.23-5.36 14.45-8.24 20.5-2.87 6.05-7.89 14.5-11.14 18.78-3.25 4.28-6.25 7.77-6.66 7.75-0.41-0.02-0.55-0.82-0.3-1.78 0.25-0.96 0.98-6.48 1.63-12.25 0.75-6.76 0.98-18.87 0.62-34-0.45-19.32-0.99-25.72-3.01-36-1.35-6.87-3.25-15.2-4.22-18.5-1.39-4.73-1.92-5.58-2.5-4-0.4 1.1-1.51 7.85-2.45 15-0.94 7.15-3.42 19.75-5.51 28-2.09 8.25-5.36 19.05-7.27 24-1.91 4.95-5.96 13.95-9.01 20-3.05 6.05-7.79 14.15-10.53 18-2.75 3.85-8.64 10.94-13.1 15.75-4.45 4.81-8.09 9.31-8.08 10 0.01 0.69 1.77 3.95 3.92 7.25 2.15 3.3 7.43 9.39 11.73 13.54 4.31 4.15 13.31 11.12 20.01 15.5 6.71 4.38 14.04 9.09 16.3 10.46 2.27 1.38 5.33 4.26 6.82 6.42 2.04 2.96 2.79 5.41 3.05 10 0.25 4.37-0.27 7.91-1.86 12.58-1.21 3.58-3.79 9.65-5.73 13.5-1.94 3.85-5.35 9.7-7.58 13-2.22 3.3-7.27 10.27-11.21 15.5-3.94 5.23-7.96 11.08-8.94 13-1.41 2.78-1.65 4.83-1.14 10 0.35 3.58 0.93 10.55 1.28 15.5 0.58 8.2 0.42 9.44-1.77 13.94-1.56 3.22-5.43 7.75-19.77 21.06l0.08 10.5c0.05 7.32-0.38 11.56-1.44 14-0.83 1.92-4.32 6.65-7.76 10.5-3.44 3.85-7.32 8.69-8.63 10.75-1.31 2.06-3.05 5.89-3.86 8.5-0.81 2.61-2.61 12.63-4 22.25-1.38 9.63-3.26 20.65-4.16 24.5-0.91 3.85-2.88 9.48-4.39 12.5-1.51 3.02-4.93 7.56-7.6 10.08-2.68 2.52-6.67 5.51-8.87 6.65-2.2 1.13-7.38 3.12-11.5 4.41-6.79 2.14-9.2 2.35-25.5 2.25-13.57-0.08-22.61-0.76-36.75-2.75-10.31-1.45-19.88-2.64-21.25-2.64-2.38 0-2.5 0.28-2.49 5.75 0 3.16 0.9 9.46 2 14 1.09 4.54 3.37 11.29 5.05 15 1.68 3.71 4.16 8.21 5.5 10 2.22 2.96 2.91 3.25 7.69 3.21 2.89-0.02 13.8-0.86 24.25-1.86 13.04-1.25 20.88-1.56 25-0.98 3.34 0.46 9.22 2.39 13.25 4.35 4.09 1.99 9.34 5.6 12.03 8.28 2.63 2.61 11.03 13.98 18.68 25.25 7.64 11.27 24.31 35.8 37.03 54.5 12.73 18.7 32.76 48.17 44.52 65.5 11.75 17.33 35.16 51.75 52.02 76.5 16.86 24.75 38.54 56.7 48.19 71 9.64 14.3 18.03 27.8 18.65 30 0.61 2.2 1.13 5.8 1.14 8 0.01 2.23-1.06 6.21-2.42 9-1.34 2.75-3.93 6.15-5.76 7.56-1.83 1.41-4.68 3.09-6.33 3.75-1.65 0.65-15.38 3.19-30.5 5.66-15.13 2.46-42.35 6.73-60.5 9.47-18.15 2.74-50.33 7.68-71.5 10.96-21.17 3.29-52 8.06-68.5 10.6-16.5 2.54-47.77 7.3-69.5 10.57-21.73 3.27-51.88 7.95-67 10.39-15.13 2.45-35.38 5.6-45 7.01-9.63 1.42-33.25 5.03-52.5 8.04-19.25 3-46.7 7.25-61 9.45-14.3 2.19-40.4 6.22-58 8.95-17.6 2.73-51.8 7.96-76 11.61-24.2 3.65-47.15 6.62-51 6.6-4.02-0.02-9.77-0.88-13.5-2.02-3.58-1.09-9.39-3.92-12.92-6.29-3.54-2.37-7.69-5.89-9.24-7.81-1.55-1.92-5.01-7.55-7.69-12.5-2.67-4.95-9.81-18-15.86-29-6.05-11-14.96-27.2-19.81-36-4.84-8.8-12.25-22.3-16.46-30-4.21-7.7-19.28-35.15-33.48-61-14.21-25.85-31.56-57.35-38.56-70-7.01-12.65-20.28-36.72-29.5-53.5-9.23-16.78-20.5-37.47-25.05-46-4.88-9.14-9.31-18.99-10.8-24-1.39-4.67-3.08-11.42-3.75-15-0.68-3.58-1.22-13.03-1.21-21 0.02-9.11 0.66-18.03 1.73-24 0.93-5.23 3.04-14.67 4.68-21 1.64-6.33 5.49-17.8 8.56-25.5 3.07-7.7 8.67-20.08 12.43-27.5 3.76-7.42 10.03-18.45 13.92-24.5 3.9-6.05 6.96-11.1 6.8-11.23-0.16-0.13-6.59 4.06-14.29 9.3-7.7 5.24-20.07 12.61-27.5 16.37-7.43 3.76-18 8.5-23.5 10.55-5.5 2.04-15.18 5-21.5 6.57-6.32 1.56-16.23 3.52-22 4.34-5.78 0.83-13.2 1.6-16.5 1.71-3.3 0.12-6.11-0.08-6.25-0.45-0.14-0.36 3.46-5.1 8-10.52 4.54-5.42 13.2-16.76 19.25-25.2 6.05-8.44 14.51-21.21 18.81-28.39 4.29-7.18 11.33-20.25 15.65-29.05 4.31-8.8 10.08-21.62 12.82-28.5 2.74-6.87 6.59-17.23 8.56-23 1.97-5.77 5.63-17.92 8.14-27 2.51-9.08 5.88-22.8 7.48-30.5 1.6-7.7 3.62-18.39 4.48-23.75 0.86-5.36 1.56-9.98 1.56-10.25 0-0.27-5.51 2.26-12.25 5.64-6.74 3.37-15.85 7.39-20.25 8.92-4.4 1.52-10.93 3.46-14.5 4.29-3.57 0.84-11.68 2.08-18 2.76-8.97 0.97-14.25 0.98-24 0.07-6.88-0.65-16.32-2.14-21-3.31-4.68-1.17-10.75-3.12-18.5-6.52l12-6.11c6.6-3.36 16.01-8.95 20.92-12.42 4.91-3.48 13.46-10.64 19-15.92 5.54-5.28 13.27-13.38 17.16-18 3.9-4.62 10.27-12.9 14.16-18.4 3.89-5.5 9.67-14.5 12.85-20 3.17-5.5 7.87-14.5 10.44-20 2.57-5.5 5.85-13.6 7.3-18 1.44-4.4 3.52-11.83 4.62-16.5 1.1-4.67 2.51-11.87 3.14-16 0.73-4.75 1.23-26.9 1.37-60.5 0.18-41.32 0.6-56.52 1.91-69 0.93-8.8 2.56-21.62 3.63-28.5 1.07-6.87 2.87-17 3.99-22.5 1.13-5.5 3.65-16.07 5.6-23.5 1.95-7.43 5.29-18.9 7.44-25.5 2.14-6.6 6.2-17.62 9.03-24.5 2.82-6.87 9.22-20.6 14.22-30.5 5.28-10.46 13.58-24.7 19.82-34 5.9-8.8 15.58-21.85 21.51-29 5.93-7.15 15.53-17.88 21.33-23.86 5.81-5.97 15.51-15.27 21.56-20.68 6.05-5.41 15.73-13.51 21.5-18.01 5.77-4.5 15.45-11.44 21.5-15.42 6.05-3.97 14.6-9.4 19-12.06 4.4-2.66 16.1-8.95 26-13.98 9.9-5.02 23.62-11.49 30.5-14.36 6.87-2.88 21.73-8.35 33-12.16 11.27-3.81 29.05-8.93 39.5-11.37 10.45-2.44 24.62-5.36 31.5-6.48 6.87-1.11 16.33-2.52 21-3.11 4.67-0.6 14.12-1.49 21-1.98 6.87-0.49 21.05-0.71 31.5-0.49zm-80.61 216.96c-4.18 5.5-9.63 13.15-12.13 17-2.49 3.85-7.88 13.07-11.98 20.5-4.09 7.43-10.33 19.75-13.86 27.4-3.91 8.47-7.2 14.28-8.42 14.89-1.25 0.61-3.3 0.64-5.5 0.07-3.19-0.82-4.01-1.89-9.21-11.88-3.77-7.26-7.18-12.34-10.05-14.98-2.39-2.2-6.12-4.56-8.29-5.23-2.17-0.68-6.54-1.24-9.7-1.25-5.36-0.02-7.4 0.8-30 12.06-13.65 6.81-25.69 13.47-27.54 15.25-1.81 1.75-3.72 4.86-4.25 6.92-0.64 2.52-0.6 5.14 0.14 8 0.6 2.34 5.35 13.25 10.54 24.25 5.2 11 11.12 22.46 13.16 25.47 2.24 3.31 5.64 6.66 8.62 8.5 4.41 2.72 5.76 3.03 13 3.03 7.23 0 8.98-0.4 16.58-3.84 4.67-2.11 9.72-4.36 11.22-5 1.92-0.82 3.53-0.86 5.5-0.14 1.53 0.56 2.93 1.91 3.11 3 0.18 1.09-3.28 14.35-7.69 29.48-4.41 15.12-10.45 33.57-13.43 41-2.99 7.43-8.42 19.46-12.07 26.75-3.65 7.29-9.52 18.09-13.04 24-3.52 5.91-9.93 15.78-14.25 21.93-4.32 6.15-11.72 15.82-16.45 21.5-4.73 5.68-13.06 15-18.5 20.72-5.45 5.72-15.19 15.05-21.65 20.75-6.46 5.69-17.71 14.78-25 20.2-7.29 5.42-17.52 12.53-22.75 15.82-5.23 3.28-16.7 9.94-25.5 14.79-11.08 6.12-15.54 9.06-14.5 9.57 0.82 0.41 8.02 2.36 16 4.35 7.98 1.98 19.23 4.38 25 5.34 7.75 1.28 16.45 1.74 33.25 1.76 12.51 0.01 22.75 0.13 22.75 0.27 0 0.14-1.73 3.74-3.85 8-2.12 4.26-6.15 13.6-8.95 20.75-2.8 7.15-6.71 18.62-8.69 25.5-1.97 6.87-4.57 17.9-5.78 24.5-1.9 10.35-2.2 15.58-2.21 38-0.01 20.93 0.34 27.95 1.81 36 1.01 5.5 2.9 14.27 4.2 19.5 1.3 5.23 3.93 14 5.85 19.5 1.91 5.5 6.02 15.62 9.13 22.5 3.11 6.87 7.19 15.31 9.07 18.75 1.88 3.44 3.76 6.26 4.17 6.27 0.41 0.01 1.31-2.57 1.99-5.75 0.69-3.17 2.79-11.17 4.66-17.77 1.88-6.6 5.57-17.85 8.2-25 2.63-7.15 8.71-20.88 13.51-30.5 4.8-9.63 12.62-23.8 17.39-31.5 4.76-7.7 10.59-16.7 12.94-20 2.36-3.3 8.62-11.51 13.92-18.25 5.3-6.74 9.42-12.59 9.15-13-0.27-0.41-3.54 1.33-7.25 3.88-3.72 2.55-11.23 8.4-16.7 13-5.46 4.6-13.35 12.2-17.52 16.87-4.17 4.67-10.33 12.1-13.68 16.5-3.35 4.4-9.31 12.95-13.26 19-3.94 6.05-9.23 15.05-11.76 20-4.29 8.39-4.7 8.86-5.98 7-0.75-1.1-2.24-5.83-3.32-10.5-1.07-4.67-2.42-11.42-2.99-15-0.57-3.58-1.32-11.9-1.67-18.5-0.38-7.1-0.15-17.11 0.57-24.5 0.66-6.88 2.06-17.23 3.09-23 1.03-5.77 3.45-15.9 5.37-22.5 1.93-6.6 5.8-17.85 8.62-25 2.82-7.15 8.65-20.2 12.96-29 4.31-8.8 10.79-21.17 14.41-27.5 3.61-6.33 6.46-11.59 6.34-11.7-0.13-0.11-3.73 0.9-7.99 2.25-4.26 1.35-13.26 3.57-20 4.93-6.74 1.37-19.23 3-27.75 3.63-8.52 0.63-17.3 0.82-19.5 0.41l-4-0.73c3.87-2.55 11.07-7.84 18.5-13.41 7.43-5.56 19.12-15.06 26-21.1 6.87-6.04 17.67-16.35 24-22.91 6.33-6.55 16.37-17.98 22.33-25.39 5.95-7.42 14.57-19.11 19.15-25.98 4.58-6.88 11.07-17.45 14.43-23.5 3.35-6.05 8.63-16.63 11.72-23.5 3.09-6.88 7.64-17.9 10.1-24.5 2.47-6.6 6.51-19.2 8.99-28 2.47-8.8 5.35-19.04 6.39-22.75 1.57-5.59 2.19-6.65 3.64-6.16 0.96 0.33 40.45 13.61 87.75 29.51 47.3 15.9 86.11 28.91 86.25 28.91 0.14-0.01 0.49 6.85 0.79 15.24 0.3 8.39 0.99 21.33 1.53 28.75 0.54 7.42 1.88 19.8 2.98 27.5 1.1 7.7 3.16 19.85 4.59 27 1.42 7.15 4.07 18.4 5.88 25 1.81 6.6 5.4 17.85 7.98 25 2.59 7.15 7.16 18.17 10.16 24.5 3 6.33 7.76 15.55 10.58 20.5 2.82 4.95 7.36 12.37 10.1 16.5 2.74 4.12 7.25 10.42 10.02 14 2.78 3.58 9.57 11.12 15.09 16.77 7.42 7.58 9.53 10.27 8.05 10.27-1.1 0-6.27-1.11-11.5-2.46-5.23-1.35-14.67-4.53-21-7.07-6.33-2.54-14.88-6.43-19-8.65-4.13-2.22-11.07-6.58-15.44-9.7-4.37-3.11-13.43-11.06-20.14-17.66-6.77-6.66-15.8-16.9-20.29-23-4.45-6.05-10.87-15.73-14.25-21.5-3.39-5.77-6.87-11.63-7.73-13l-1.56-2.5c-1.08 6.2-2.11 15.65-2.99 25-0.89 9.51-1.59 26.47-1.59 38.5 0.01 11.83 0.46 26.9 1.02 33.5 0.55 6.6 1.69 16.73 2.52 22.5 0.83 5.77 2.61 15.9 3.97 22.5 1.35 6.6 3.84 16.95 5.53 23 1.7 6.05 5.35 17.08 8.13 24.5 2.77 7.42 7.84 19.35 11.25 26.5 3.41 7.15 8.7 17.05 11.75 22 3.04 4.95 10.3 15.98 16.12 24.5 5.82 8.52 10.27 15.63 9.89 15.78-0.38 0.15-4.74-1.13-9.69-2.85-4.95-1.73-13.95-5.6-20-8.61-6.05-3.02-15.05-7.87-20-10.8-4.95-2.92-13.73-8.68-19.5-12.8-5.77-4.11-15.45-11.94-21.5-17.4-6.05-5.46-15.23-14.63-20.41-20.37-5.17-5.75-13.13-15.4-17.68-21.45-4.55-6.05-11.95-16.85-16.45-24-4.5-7.15-11.68-20.2-15.95-29-4.28-8.8-9.81-21.4-12.29-28-2.49-6.6-6.59-18.41-9.12-26.25-2.53-7.84-4.6-14.92-4.6-15.75 0-0.83-0.45-1.5-1-1.5-0.55 0-1 1.46-0.99 3.25 0 1.79 0.46 9.55 1.02 17.25 0.55 7.7 1.72 18.5 2.59 24 0.87 5.5 3.07 15.17 4.89 21.5 1.82 6.33 5.15 16.34 7.4 22.25 2.25 5.91 6.04 14.91 8.41 20 2.38 5.09 6.72 13.08 9.63 17.75 2.92 4.67 8.38 12.77 12.15 18 6.65 9.23 6.95 9.93 10.8 24.5 2.18 8.25 5.37 19.05 7.1 24 1.72 4.95 5.32 13.5 8 19 2.67 5.5 7.42 14.05 10.55 19 3.14 4.95 8.22 12.37 11.3 16.5 3.07 4.12 11.23 13.28 18.12 20.34 6.89 7.05 18.25 17.4 25.25 23 6.99 5.59 12.5 10.5 12.25 10.91-0.26 0.41-5.42 0.75-11.47 0.75-6.05 0-14.49-0.49-18.75-1.1-4.26-0.6-11.58-2.2-16.25-3.56-4.67-1.35-13-4.36-18.5-6.69-5.5-2.32-13.6-6.36-18-8.98-4.4-2.62-12.16-8.11-17.25-12.21-5.09-4.1-9.47-7.35-9.74-7.21-0.26 0.14 1.05 5.87 2.91 12.75 1.86 6.87 5.54 18.35 8.17 25.5 2.63 7.15 8.72 20.87 13.53 30.5 4.81 9.62 13.2 24.25 18.64 32.5 5.44 8.25 13.41 19.5 17.71 25 4.3 5.5 11.68 14.5 16.4 20 4.72 5.5 15.35 16.64 23.61 24.75 8.26 8.12 14.46 14.75 13.77 14.75-0.69 0-8.56-1.61-17.5-3.58-8.94-1.97-24.13-6.18-33.75-9.36-9.63-3.18-22.9-8.24-29.5-11.23-6.6-3-16.5-7.99-22-11.08-5.5-3.09-14.13-8.46-19.18-11.94-5.04-3.47-13.59-9.97-19-14.45-5.4-4.47-14.43-12.91-20.07-18.75-5.64-5.83-13.74-15-18-20.36-4.26-5.37-10.51-14.03-13.89-19.25-3.38-5.23-9.31-15.58-13.19-23-3.87-7.42-9.05-18.45-11.5-24.5-2.45-6.05-6.25-16.4-8.44-23-2.19-6.6-4.6-14.6-5.36-17.77-0.75-3.17-1.82-5.76-2.37-5.75-0.66 0.01-0.76 6.81-0.31 19.77 0.38 10.86 1.4 24.02 2.28 29.25 0.87 5.23 2.9 14.45 4.51 20.5 1.6 6.05 4.56 15.05 6.56 20 2 4.95 4.34 10.35 5.2 12 0.86 1.65 3.52 6.26 5.91 10.25 2.39 3.99 4.24 7.42 4.1 7.63-0.14 0.2-9.48 1.33-20.75 2.51-11.27 1.17-25.67 2.59-32 3.15-6.33 0.56-35.13 3.24-64 5.96-28.88 2.72-55.43 5.2-59 5.52-3.58 0.31-8.86 1-11.75 1.52-3.01 0.55-6.53 2.03-8.25 3.46-1.7 1.41-3.28 3.91-3.64 5.75-0.49 2.5 0.16 4.97 2.83 10.75 1.91 4.12 14.96 28.2 29.01 53.5 14.04 25.3 31.05 56.13 37.8 68.5 6.75 12.37 19.14 34.88 27.53 50 8.4 15.12 26.83 48.42 40.95 74 14.13 25.58 27.11 48 28.85 49.84 1.74 1.84 5.42 4.53 8.17 5.99 4.27 2.26 6.17 2.63 13 2.55 4.55-0.05 24.59-2.75 46.5-6.27 21.17-3.41 50.65-7.98 65.5-10.17 14.85-2.19 30.83-4.63 35.5-5.42 4.67-0.79 27.17-4.18 50-7.52 22.83-3.35 48.48-7.21 57-8.59 8.52-1.38 37.55-5.84 64.5-9.92 26.95-4.08 61.15-9.25 76-11.48 14.85-2.24 38.7-5.87 53-8.08 14.3-2.21 40.85-6.25 59-8.98 18.15-2.74 46.05-7.01 62-9.49 15.95-2.49 36.87-5.67 46.5-7.06 9.62-1.4 18.51-3.19 19.75-3.97 1.24-0.79 2.76-3.12 3.38-5.18 0.99-3.28 0.83-4.39-1.25-8.86-1.31-2.81-34.98-53.66-74.81-113-39.84-59.34-78.27-116.44-85.39-126.89-7.12-10.45-14.58-21.13-16.57-23.74-1.98-2.61-5.41-5.71-7.61-6.89-2.2-1.19-6.25-2.36-9-2.61-2.75-0.24-18.05 0.74-34 2.2-15.95 1.45-37.77 3.52-48.5 4.59-10.73 1.07-31.42 3.07-46 4.44-14.58 1.38-28.52 2.51-31 2.52l-4.5 0.01c-1.16-9.7-1.06-17.25-0.51-23.02 0.54-5.77 1.92-15.9 3.06-22.5 1.13-6.6 2.96-16.05 4.04-21 1.09-4.95 3.51-14.85 5.37-22 1.87-7.15 5.21-17.73 7.43-23.5 2.22-5.77 5.52-12.61 7.32-15.19 1.81-2.58 4.87-5.86 6.79-7.29 1.92-1.43 5.98-3.32 9-4.19 3.96-1.14 7.46-1.41 12.5-0.95 3.85 0.36 16 2.69 27 5.19 11 2.5 26.3 5.83 34 7.39 7.7 1.57 19.85 3.66 27 4.65 7.15 0.99 19.08 1.82 26.5 1.85 10.9 0.03 14.56-0.33 19-1.91 3.03-1.07 7-3.32 8.83-5 2.15-1.96 3.84-4.83 4.75-8.05 0.77-2.75 2.5-11.98 3.84-20.5 1.33-8.52 3.19-18.88 4.12-23 0.93-4.13 3.14-10.65 4.93-14.5 1.78-3.85 5.84-10.15 9.03-14 3.19-3.85 6.4-8.46 7.15-10.25 0.74-1.79 1.35-4.6 1.35-6.25 0-1.65-0.92-5.36-2.05-8.25-1.22-3.11-1.83-6.37-1.5-8 0.33-1.66 2.24-4.06 4.8-6.03 2.34-1.81 6.86-5.07 10.06-7.25 3.66-2.51 6.38-5.26 7.37-7.47 1.38-3.07 1.42-5.09 0.35-16.5-0.9-9.55-0.94-14.06-0.13-17 0.6-2.2 2.44-6.36 4.09-9.25 1.66-2.89 7.37-10.99 12.69-18 5.4-7.11 11.64-16.73 14.1-21.75 3-6.12 4.25-9.8 3.9-11.5-0.39-1.87-2.89-3.93-9.85-8.12-5.13-3.1-12.9-8.5-17.26-12-4.35-3.51-11.55-10.29-16-15.06-4.44-4.78-9.53-11.08-11.31-14-1.79-2.93-4.44-8.24-5.89-11.82-1.46-3.58-3.32-10.55-4.15-15.5-1.41-8.49-1.37-9.77 0.66-22.5 1.18-7.42 2.42-16.65 2.76-20.5 0.39-4.44 0.27-6.63-0.34-6-0.52 0.55-3.9 4.83-7.5 9.5-3.61 4.67-9.65 11.67-13.43 15.54-3.78 3.87-9.34 9.1-12.37 11.62-3.03 2.52-8.88 6.84-13 9.59-4.13 2.74-10.76 6.63-14.75 8.62-3.99 2-7.25 3.18-7.25 2.63 0-0.55 2.24-9.21 4.98-19.25 2.74-10.04 6.09-24.33 7.44-31.75 1.36-7.42 2.92-17.55 3.47-22.5 0.56-4.95 1.26-14.06 1.56-20.25 0.3-6.19 0.33-11.25 0.05-11.25-0.28 0-3.25 5.51-6.61 12.25-3.35 6.74-8.48 15.85-11.38 20.25-2.9 4.4-8.48 11.04-12.39 14.75-3.92 3.71-7.37 6.64-7.67 6.5-0.3-0.14-0.01-7.67 0.65-16.75 0.76-10.41 0.96-24.25 0.54-37.5-0.36-11.55-1.34-26.85-2.18-34-0.83-7.15-2.87-20.43-4.53-29.5-1.66-9.07-3.92-20.1-5.02-24.5-1.11-4.4-3.45-12.62-5.21-18.27-1.76-5.65-3.43-10.28-3.7-10.28-0.27 0-3.99 7.55-8.25 16.78-4.27 9.22-10.95 22.39-14.87 29.27-3.91 6.87-11.39 18.8-16.62 26.5-5.24 7.7-13.83 19.4-19.09 26-5.26 6.6-17.46 19.89-27.12 29.54-9.65 9.65-22.05 21.13-27.55 25.5-5.5 4.38-13.82 10.53-18.5 13.68-4.67 3.15-8.73 5.56-9 5.35-0.27-0.2-1.13-9.98-1.91-21.72-0.97-14.69-1.22-29.3-0.79-46.85 0.34-14.02 1.55-35.4 2.69-47.5 1.13-12.1 2.98-28.52 4.1-36.5 1.12-7.98 2.92-19.68 4-26 1.08-6.32 3.56-19.6 5.52-29.5 1.95-9.9 5.32-25.09 7.47-33.75 2.16-8.66 3.92-17.77 3.92-20.25 0-4.22-0.12-4.42-1.95-3.25-1.07 0.69-2.93 3.27-4.14 5.75-1.21 2.48-4.77 10.12-7.93 17-3.15 6.87-8.29 19.93-11.42 29-3.14 9.07-7.43 23.7-9.55 32.5-2.11 8.8-4.37 19.15-5.01 23-0.64 3.85-1.46 7.61-1.83 8.35-0.52 1.05-5.88-0.44-24.17-6.7-12.92-4.42-34.08-11.63-47-16-12.92-4.38-37.67-12.6-55-18.27-17.33-5.67-31.63-10.33-31.78-10.35-0.15-0.01 2.16-6.33 5.15-14.03 2.98-7.7 7.68-19.18 10.43-25.5 2.75-6.32 8.15-18.02 11.99-26 3.84-7.98 10.2-20.35 14.11-27.5 3.92-7.15 7-13.38 6.85-13.85-0.15-0.47-4.55 3.58-9.77 9-5.22 5.42-12.91 14.35-17.09 19.85zm330.36 806.6c2.06-0.05 5.44 0.6 7.5 1.46 2.06 0.85 4.81 2.54 6.1 3.75 1.28 1.2 2.97 3.43 3.75 4.94 0.77 1.51 1.4 3.87 1.4 5.25 0 1.37-1.24 3.78-2.75 5.34-2.42 2.5-3.94 2.99-12.75 4.11-5.5 0.71-20.58 2.54-33.5 4.08-12.92 1.54-38.8 4.6-57.5 6.8-18.7 2.2-49.08 5.67-67.5 7.7-18.42 2.03-33.95 3.88-34.5 4.1-0.55 0.22-6.17-4.77-12.5-11.08-8.01-8-11.04-11.63-10-11.98 0.83-0.28 11.17-1.64 23-3.02 11.83-1.38 45.8-5.23 75.5-8.56 29.7-3.32 66.6-7.56 82-9.41 15.4-1.86 29.69-3.42 31.75-3.48zm-464.25 29.01c2.65-0.05 6.14 0.74 8.5 1.92 2.2 1.1 4.86 3.23 5.92 4.73 1.06 1.51 2.18 4.41 2.5 6.44 0.48 3.06 0.15 4.15-1.92 6.25-1.38 1.4-3.4 2.74-4.5 2.98-1.1 0.24-11.45 1.64-23 3.1-11.55 1.47-21.32 2.96-21.71 3.32-0.4 0.36 3.61 8.3 8.9 17.65 5.29 9.35 10.06 18.35 10.59 20 0.73 2.26 0.58 3.87-0.62 6.5-0.87 1.92-2.73 4.06-4.12 4.75-1.4 0.69-4.12 1.25-6.04 1.25-1.92 0-5.3-0.9-7.5-2-2.2-1.1-5.08-3.46-6.41-5.25-1.32-1.79-6.12-9.78-10.65-17.75-4.54-7.97-9.13-16.53-10.2-19-1.08-2.47-1.96-6.08-1.96-8 0-1.92 0.5-5.41 1.11-7.75 0.61-2.34 2.35-5.66 3.86-7.37 1.51-1.72 4.32-3.79 6.25-4.6 1.92-0.8 13.17-2.73 25-4.27 11.83-1.55 23.52-2.85 26-2.9zm492.5 20.02c7.58-0.08 9.63 0.26 12.96 2.14 2.17 1.22 5 3.81 6.27 5.73 1.33 1.99 2.33 5.01 2.32 7q0 3.5-2.27 5.69c-1.5 1.44-4.5 2.54-8.78 3.23-3.58 0.57-13.92 1.92-23 3-11.82 1.41-17.64 1.7-20.5 1.03-2.2-0.51-5.01-1.61-6.25-2.44-1.24-0.83-3.36-2.97-4.72-4.76-1.59-2.09-2.48-4.59-2.5-7-0.02-2.69 0.68-4.46 2.47-6.25 1.37-1.38 3.96-2.76 5.75-3.07 1.79-0.31 9.1-1.39 16.25-2.39 7.15-1 17.05-1.86 22-1.91zm-86.25 9.98c0.41-0.06 3.11 0.77 6 1.85 2.89 1.08 6.43 3.22 7.88 4.75 1.44 1.54 3.13 3.8 3.75 5.04 0.62 1.24 1.13 3.49 1.15 5 0.02 1.51-0.77 3.51-1.75 4.43-0.98 0.92-3.02 2.16-4.53 2.75-1.51 0.59-14.11 2.46-28 4.15-13.89 1.69-35.15 4.36-69.25 8.79l-5-3.86c-2.75-2.12-8.71-7.04-13.25-10.93-4.54-3.89-8.14-7.26-8-7.49 0.14-0.23 10.6-1.61 23.25-3.07 12.65-1.46 27.5-3.35 33-4.18 5.5-0.84 19.9-2.78 32-4.32 12.1-1.54 22.34-2.84 22.75-2.91zm120.75 38.03c1.92-0.06 5.22 0.45 7.33 1.13 2.1 0.67 5.38 2.81 7.27 4.73 2.33 2.36 3.65 4.8 4.05 7.5 0.49 3.29 0.18 4.49-1.78 6.76-1.73 2.02-3.85 3.02-7.87 3.74-3.03 0.54-16.08 2.33-29 3.97-12.92 1.64-26.42 3.45-30 4.02-3.58 0.58-15.73 2.37-27 3.99-11.27 1.62-23.42 2.97-27 3-5.56 0.04-7.19-0.39-11.25-2.97-2.61-1.65-5.42-4.36-6.25-6.01-0.83-1.65-1.5-4.13-1.5-5.5 0-1.38 0.52-3.51 1.15-4.75 0.63-1.24 1.64-2.59 2.25-3 0.6-0.41 2.68-1.17 4.6-1.69 1.92-0.51 11.83-1.89 22-3.05 10.17-1.16 31.55-3.88 47.5-6.05 15.95-2.16 31.92-4.33 35.5-4.82 3.58-0.49 8.08-0.94 10-1zm-285.5 8.97c6.04-0.09 8.86 0.34 11.5 1.74 1.92 1.02 4.53 3.38 5.78 5.25 1.29 1.93 2.28 4.92 2.27 6.9q0 3.5-2.27 5.68c-1.26 1.19-3.41 2.44-4.78 2.76-1.38 0.33-45.7 5.98-98.5 12.56-52.8 6.58-97.8 12.42-100 12.97-2.2 0.55-10.3 1.71-18 2.58-7.7 0.86-20.52 2.43-28.5 3.47-7.98 1.04-19.45 2.21-25.5 2.58-10.03 0.62-11.37 0.49-15.25-1.46-2.34-1.18-5.15-3.6-6.25-5.39-1.09-1.79-1.99-4.94-2-7 0-2.53 0.73-4.51 2.25-6.09 1.24-1.29 4.05-2.65 6.25-3.02 2.2-0.37 22.23-2.92 44.5-5.67 22.27-2.75 55.12-6.86 73-9.12 17.87-2.27 58.37-7.38 90-11.37 31.62-3.99 61.1-7.31 65.5-7.37zm122.57 13.23c6.27 0.13 8.22 0.59 11.27 2.66 2.03 1.37 4.58 4.3 5.66 6.5 1.08 2.2 1.98 5.01 1.99 6.25 0 1.24-1 3.41-2.24 4.82-2.12 2.43-3.69 2.77-27.25 5.97-13.75 1.87-27.02 3.41-29.5 3.42-2.48 0.02-6.08-0.39-8-0.9-1.92-0.51-5.11-2.65-7.08-4.75-1.97-2.09-3.9-5.16-4.3-6.81-0.39-1.65-0.24-4.24 0.33-5.75 0.58-1.51 2.29-3.37 3.8-4.13 1.51-0.76 11.75-2.54 22.75-3.97 11-1.42 21.12-2.79 22.5-3.03 1.37-0.24 5.91-0.37 10.07-0.28zm-117.65 38.66q4.58 0 8.33 2.32c2.06 1.28 4.71 3.64 5.88 5.25 1.18 1.61 5.84 9.23 10.37 16.93 4.53 7.7 9.08 15.69 10.12 17.75 1.03 2.06 2.33 5.78 2.88 8.25 0.55 2.47 0.68 6.41 0.29 8.75-0.39 2.34-1.64 5.6-2.79 7.25-1.14 1.65-3.86 4.01-6.04 5.24-2.18 1.24-5.98 2.36-8.46 2.5-2.48 0.14-4.73 0.53-5 0.86-0.27 0.33-8.15 1.8-17.5 3.26-9.35 1.47-18.91 2.66-21.25 2.66-2.34-0.01-5.71-0.61-7.5-1.34-1.79-0.72-4.37-2.86-5.73-4.75-1.53-2.1-2.49-4.78-2.49-6.93 0.01-1.92 0.9-4.73 1.99-6.24 1.09-1.5 3.56-3.16 5.48-3.68 1.92-0.52 10.48-1.88 19-3.03 8.52-1.14 17.19-2.29 19.25-2.56 2.07-0.27 3.75-1.05 3.76-1.74 0-0.69-4.55-9.13-10.12-18.75-6.42-11.1-10.33-18.96-10.69-21.5-0.48-3.5-0.17-4.41 2.55-7.25 2.61-2.74 3.81-3.25 7.67-3.25zm-215.63 33.15c3.51 0.26 6.78 1.18 8.49 2.38 1.53 1.09 6.53 8.27 11.11 15.97 4.59 7.7 9.64 16.22 11.22 18.92 1.59 2.71 3.79 5.53 4.89 6.27 1.71 1.15 5.13 0.9 23.25-1.67 11.69-1.66 22.83-3.02 24.75-3.02 1.92 0 4.96 0.59 6.75 1.32 1.79 0.72 4.35 2.86 5.69 4.75 1.33 1.88 2.78 4.78 3.2 6.43 0.51 1.98 0.28 4.1-0.68 6.25-1.1 2.44-2.4 3.49-5.21 4.22-2.06 0.54-12.86 2.34-24 4-11.14 1.67-22.73 3.03-25.75 3.03-3.02 0-8.31-0.95-11.75-2.1-3.44-1.16-8.5-3.59-11.25-5.4-2.75-1.81-6.85-5.7-9.11-8.65-2.26-2.94-8.43-13.23-13.72-22.85-6.87-12.51-9.63-18.5-9.65-21-0.02-1.92 0.59-4.53 1.36-5.79 1.09-1.79 1.91-2.13 3.76-1.57 1.79 0.55 2.19 0.41 1.65-0.59-0.56-1.03 0.49-1.22 5-0.9z"/>
</svg>